<svg xmlns="http://www.w3.org/2000/svg" width="1123" height="794" viewBox="0 0 1123 794">
<rect width="100%" height="100%" fill="white"/>
<text x="40" y="40" text-anchor="start" font-family="Arial" font-size="27" font-weight="bold">S33 – Diagnostic : quels patrons de cube fermeront ?</text>
<text x="40" y="68" text-anchor="start" font-family="Arial" font-size="14" font-weight="normal">Répondre avant de découper : FERMERA · NE FERMERA PAS · JE NE SAIS PAS ENCORE</text>
<rect x="45" y="110" width="500" height="265" rx="14" fill="white" stroke="#222" stroke-width="1.8" stroke-dasharray="8 5"/>
<circle cx="83" cy="148" r="22" fill="white" stroke="#222" stroke-width="2"/>
<text x="83" y="155" text-anchor="middle" font-family="Arial" font-size="18" font-weight="bold">1</text>
<rect x="250.0" y="157.5" width="45" height="45" rx="0" fill="#f7f7f7" stroke="#222" stroke-width="1.8"/>
<rect x="205.0" y="202.5" width="45" height="45" rx="0" fill="#f7f7f7" stroke="#222" stroke-width="1.8"/>
<rect x="250.0" y="202.5" width="45" height="45" rx="0" fill="#f7f7f7" stroke="#222" stroke-width="1.8"/>
<rect x="295.0" y="202.5" width="45" height="45" rx="0" fill="#f7f7f7" stroke="#222" stroke-width="1.8"/>
<rect x="340.0" y="202.5" width="45" height="45" rx="0" fill="#f7f7f7" stroke="#222" stroke-width="1.8"/>
<rect x="250.0" y="247.5" width="45" height="45" rx="0" fill="#f7f7f7" stroke="#222" stroke-width="1.8"/>
<text x="70" y="335" text-anchor="start" font-family="Arial" font-size="13" font-weight="normal">Prévision : ______________________________</text>
<text x="70" y="360" text-anchor="start" font-family="Arial" font-size="13" font-weight="normal">Premier risque : _________________________</text>
<rect x="570" y="110" width="500" height="265" rx="14" fill="white" stroke="#222" stroke-width="1.8" stroke-dasharray="8 5"/>
<circle cx="608" cy="148" r="22" fill="white" stroke="#222" stroke-width="2"/>
<text x="608" y="155" text-anchor="middle" font-family="Arial" font-size="18" font-weight="bold">2</text>
<rect x="752.5" y="180.0" width="45" height="45" rx="0" fill="#f7f7f7" stroke="#222" stroke-width="1.8"/>
<rect x="797.5" y="180.0" width="45" height="45" rx="0" fill="#f7f7f7" stroke="#222" stroke-width="1.8"/>
<rect x="842.5" y="180.0" width="45" height="45" rx="0" fill="#f7f7f7" stroke="#222" stroke-width="1.8"/>
<rect x="752.5" y="225.0" width="45" height="45" rx="0" fill="#f7f7f7" stroke="#222" stroke-width="1.8"/>
<rect x="797.5" y="225.0" width="45" height="45" rx="0" fill="#f7f7f7" stroke="#222" stroke-width="1.8"/>
<rect x="842.5" y="225.0" width="45" height="45" rx="0" fill="#f7f7f7" stroke="#222" stroke-width="1.8"/>
<text x="595" y="335" text-anchor="start" font-family="Arial" font-size="13" font-weight="normal">Prévision : ______________________________</text>
<text x="595" y="360" text-anchor="start" font-family="Arial" font-size="13" font-weight="normal">Premier risque : _________________________</text>
<rect x="45" y="420" width="500" height="265" rx="14" fill="white" stroke="#222" stroke-width="1.8" stroke-dasharray="8 5"/>
<circle cx="83" cy="458" r="22" fill="white" stroke="#222" stroke-width="2"/>
<text x="83" y="465" text-anchor="middle" font-family="Arial" font-size="18" font-weight="bold">3</text>
<rect x="227.5" y="445.0" width="45" height="45" rx="0" fill="#f7f7f7" stroke="#222" stroke-width="1.8"/>
<rect x="272.5" y="445.0" width="45" height="45" rx="0" fill="#f7f7f7" stroke="#222" stroke-width="1.8"/>
<rect x="317.5" y="445.0" width="45" height="45" rx="0" fill="#f7f7f7" stroke="#222" stroke-width="1.8"/>
<rect x="272.5" y="490.0" width="45" height="45" rx="0" fill="#f7f7f7" stroke="#222" stroke-width="1.8"/>
<rect x="272.5" y="535.0" width="45" height="45" rx="0" fill="#f7f7f7" stroke="#222" stroke-width="1.8"/>
<rect x="272.5" y="580.0" width="45" height="45" rx="0" fill="#f7f7f7" stroke="#222" stroke-width="1.8"/>
<text x="70" y="645" text-anchor="start" font-family="Arial" font-size="13" font-weight="normal">Prévision : ______________________________</text>
<text x="70" y="670" text-anchor="start" font-family="Arial" font-size="13" font-weight="normal">Premier risque : _________________________</text>
<rect x="570" y="420" width="500" height="265" rx="14" fill="white" stroke="#222" stroke-width="1.8" stroke-dasharray="8 5"/>
<circle cx="608" cy="458" r="22" fill="white" stroke="#222" stroke-width="2"/>
<text x="608" y="465" text-anchor="middle" font-family="Arial" font-size="18" font-weight="bold">4</text>
<rect x="730.0" y="490.0" width="45" height="45" rx="0" fill="#f7f7f7" stroke="#222" stroke-width="1.8"/>
<rect x="775.0" y="490.0" width="45" height="45" rx="0" fill="#f7f7f7" stroke="#222" stroke-width="1.8"/>
<rect x="730.0" y="535.0" width="45" height="45" rx="0" fill="#f7f7f7" stroke="#222" stroke-width="1.8"/>
<rect x="775.0" y="535.0" width="45" height="45" rx="0" fill="#f7f7f7" stroke="#222" stroke-width="1.8"/>
<rect x="820.0" y="535.0" width="45" height="45" rx="0" fill="#f7f7f7" stroke="#222" stroke-width="1.8"/>
<rect x="865.0" y="535.0" width="45" height="45" rx="0" fill="#f7f7f7" stroke="#222" stroke-width="1.8"/>
<text x="595" y="645" text-anchor="start" font-family="Arial" font-size="13" font-weight="normal">Prévision : ______________________________</text>
<text x="595" y="670" text-anchor="start" font-family="Arial" font-size="13" font-weight="normal">Premier risque : _________________________</text>
</svg>